<svg id="visual" viewBox="0 0 1920 1080" width="1920" height="1080" xmlns="http://www.w3.org/2000/svg" xmlns:xlink="http://www.w3.org/1999/xlink" version="1.1"><rect x="0" y="0" width="1920" height="1080" fill="#eeeff0"></rect><path d="M0 38L22.8 39.5C45.7 41 91.3 44 137 50.8C182.7 57.7 228.3 68.3 274 67.7C319.7 67 365.3 55 411.2 51.3C457 47.7 503 52.3 548.8 53.5C594.7 54.7 640.3 52.3 686 49C731.7 45.7 777.3 41.3 823 43C868.7 44.7 914.3 52.3 960 51.2C1005.7 50 1051.3 40 1097 35C1142.7 30 1188.3 30 1234 33.7C1279.7 37.3 1325.3 44.7 1371.2 51C1417 57.3 1463 62.7 1508.8 63.7C1554.7 64.7 1600.3 61.3 1646 54.3C1691.7 47.3 1737.3 36.7 1783 33.3C1828.7 30 1874.3 34 1897.2 36L1920 38L1920 0L1897.2 0C1874.3 0 1828.7 0 1783 0C1737.3 0 1691.7 0 1646 0C1600.3 0 1554.7 0 1508.8 0C1463 0 1417 0 1371.2 0C1325.3 0 1279.7 0 1234 0C1188.3 0 1142.7 0 1097 0C1051.3 0 1005.7 0 960 0C914.3 0 868.7 0 823 0C777.3 0 731.7 0 686 0C640.3 0 594.7 0 548.8 0C503 0 457 0 411.2 0C365.3 0 319.7 0 274 0C228.3 0 182.7 0 137 0C91.3 0 45.7 0 22.8 0L0 0Z" fill="#19223A" stroke-linecap="round" stroke-linejoin="miter"></path></svg>